<mxfile host="65bd71144e">
    <diagram id="GInHtZuMB5CcCfA9ihm7" name="Page-1">
        <mxGraphModel dx="630" dy="492" grid="1" gridSize="10" guides="1" tooltips="1" connect="1" arrows="1" fold="1" page="1" pageScale="1" pageWidth="850" pageHeight="1100" math="0" shadow="0">
            <root>
                <mxCell id="0"/>
                <mxCell id="1" parent="0"/>
                <mxCell id="11" style="edgeStyle=none;html=1;exitX=0.5;exitY=1;exitDx=0;exitDy=0;exitPerimeter=0;entryX=0.5;entryY=0;entryDx=0;entryDy=0;" edge="1" parent="1" source="2" target="3">
                    <mxGeometry relative="1" as="geometry"/>
                </mxCell>
                <mxCell id="2" value="Start" style="strokeWidth=2;html=1;shape=mxgraph.flowchart.terminator;whiteSpace=wrap;" parent="1" vertex="1">
                    <mxGeometry x="300" y="260" width="100" height="60" as="geometry"/>
                </mxCell>
                <mxCell id="12" style="edgeStyle=none;html=1;exitX=0.5;exitY=1;exitDx=0;exitDy=0;entryX=0.5;entryY=0;entryDx=0;entryDy=0;" edge="1" parent="1" source="3" target="10">
                    <mxGeometry relative="1" as="geometry"/>
                </mxCell>
                <mxCell id="3" value="Get Cat Image URL" style="shape=parallelogram;html=1;strokeWidth=2;perimeter=parallelogramPerimeter;whiteSpace=wrap;rounded=1;arcSize=12;size=0.23;" parent="1" vertex="1">
                    <mxGeometry x="275" y="350" width="150" height="60" as="geometry"/>
                </mxCell>
                <mxCell id="6" value="Stop" style="strokeWidth=2;html=1;shape=mxgraph.flowchart.terminator;whiteSpace=wrap;" parent="1" vertex="1">
                    <mxGeometry x="300" y="540" width="100" height="60" as="geometry"/>
                </mxCell>
                <mxCell id="13" style="edgeStyle=none;html=1;exitX=0.5;exitY=1;exitDx=0;exitDy=0;entryX=0.5;entryY=0;entryDx=0;entryDy=0;entryPerimeter=0;" edge="1" parent="1" source="10" target="6">
                    <mxGeometry relative="1" as="geometry"/>
                </mxCell>
                <mxCell id="10" value="Output Image" style="shape=parallelogram;html=1;strokeWidth=2;perimeter=parallelogramPerimeter;whiteSpace=wrap;rounded=1;arcSize=12;size=0.23;" vertex="1" parent="1">
                    <mxGeometry x="275" y="440" width="150" height="60" as="geometry"/>
                </mxCell>
            </root>
        </mxGraphModel>
    </diagram>
</mxfile>